<?xml version="1.0" encoding="UTF-8"?>
<svg id="Layer_1" data-name="Layer 1" xmlns="http://www.w3.org/2000/svg" viewBox="0 0 288 195.52">
  <defs>
    <style>
      .cls-1 {
        fill: #14387d;
      }

      .cls-2 {
        fill: #52b8e8;
      }

      .cls-3 {
        fill: #57c4c9;
      }
    </style>
  </defs>
  <polygon class="cls-2" points="117.69 167.27 117.69 176.27 115.94 176.27 115.94 167.27 113.97 167.27 113.97 165.76 119.66 165.76 119.66 167.27 117.69 167.27"/>
  <path class="cls-2" d="m124.49,167.44h-.06l-1.14,5.21h2.31l-1.11-5.21Zm1.85,8.84l-.52-2.23h-2.75l-.53,2.23h-1.78l2.61-10.51h2.27l2.56,10.51h-1.85Z"/>
  <polygon class="cls-2" points="135.02 176.27 133.27 172.25 131.51 176.27 129.66 176.27 132.28 170.74 129.91 165.76 131.76 165.76 133.32 169.38 134.86 165.76 136.68 165.76 134.29 170.74 136.93 176.27 135.02 176.27"/>
  <rect class="cls-2" x="142.93" y="170.1" width="2.55" height="2.62"/>
  <path class="cls-2" d="m155.08,167.44h-.06l-1.14,5.21h2.31l-1.11-5.21Zm1.85,8.84l-.52-2.23h-2.75l-.53,2.23h-1.78l2.61-10.51h2.27l2.56,10.51h-1.85Z"/>
  <path class="cls-2" d="m167.32,174.1c-.12.49-.31.91-.58,1.27-.27.36-.61.65-1.03.85-.42.21-.93.31-1.54.31s-1.11-.1-1.52-.31c-.42-.21-.76-.49-1.02-.85-.26-.36-.45-.78-.56-1.27-.11-.48-.17-1-.17-1.56v-6.79h1.78v6.62c0,.33.02.64.07.94s.12.57.24.79c.11.23.27.41.47.54.2.13.45.2.76.2s.56-.07.76-.2c.2-.13.35-.32.47-.54.11-.23.19-.49.24-.79s.07-.62.07-.94v-6.62h1.76v6.79c0,.56-.06,1.08-.18,1.56"/>
  <path class="cls-2" d="m175.79,171.03c0-.62-.06-1.17-.17-1.63-.11-.47-.27-.85-.48-1.16-.21-.3-.45-.53-.74-.69-.28-.15-.6-.23-.93-.23h-.85v7.4h.85c.33,0,.65-.08.93-.23.29-.15.53-.39.74-.69.21-.31.37-.69.48-1.15.11-.46.17-.99.17-1.61m1.78,0c0,1.66-.35,2.95-1.05,3.87-.7.92-1.72,1.37-3.07,1.37h-2.62v-10.51h2.64c1.34,0,2.36.46,3.06,1.39.7.93,1.05,2.22,1.05,3.88"/>
  <rect class="cls-2" x="180.62" y="165.76" width="1.78" height="10.52"/>
  <polygon class="cls-2" points="188.52 167.27 188.52 176.27 186.77 176.27 186.77 167.27 184.8 167.27 184.8 165.76 190.49 165.76 190.49 167.27 188.52 167.27"/>
  <rect class="cls-2" x="196.2" y="170.1" width="2.55" height="2.62"/>
  <path class="cls-2" d="m208.35,167.44h-.06l-1.14,5.21h2.31l-1.11-5.21Zm1.85,8.84l-.52-2.23h-2.75l-.53,2.23h-1.78l2.61-10.51h2.27l2.56,10.51h-1.85Z"/>
  <path class="cls-2" d="m219.48,171.03c0-.62-.06-1.17-.17-1.63-.11-.47-.27-.85-.48-1.16-.21-.3-.45-.53-.74-.69-.28-.15-.6-.23-.93-.23h-.85v7.4h.85c.33,0,.65-.08.93-.23.29-.15.53-.39.74-.69.21-.31.37-.69.48-1.15.11-.46.17-.99.17-1.61m1.78,0c0,1.66-.35,2.95-1.05,3.87-.7.92-1.72,1.37-3.07,1.37h-2.62v-10.51h2.64c1.34,0,2.36.46,3.06,1.39s1.05,2.22,1.05,3.88"/>
  <polygon class="cls-2" points="228.1 176.27 225.85 176.27 223.28 165.76 225.27 165.76 227.02 174.19 227.06 174.19 228.81 165.76 230.71 165.76 228.1 176.27"/>
  <rect class="cls-2" x="233.18" y="165.76" width="1.78" height="10.52"/>
  <path class="cls-2" d="m242.57,167.79c-.39-.47-.87-.7-1.45-.7-.17,0-.33.03-.49.08-.16.05-.3.14-.43.26-.13.12-.23.27-.3.46-.07.19-.11.41-.11.67,0,.45.13.79.4,1.03.27.24.62.47,1.05.69.26.13.52.28.79.45.27.17.51.37.72.61.22.24.4.52.53.85.14.33.21.71.21,1.16,0,.51-.08.97-.24,1.36-.16.4-.38.73-.65,1-.27.27-.59.47-.96.62-.37.14-.75.21-1.16.21-.59,0-1.12-.11-1.62-.34-.49-.23-.89-.51-1.19-.86l.96-1.31c.23.28.5.5.82.65.32.16.65.24.99.24.37,0,.69-.13.93-.39.25-.26.37-.62.37-1.08s-.15-.82-.45-1.08c-.3-.27-.67-.51-1.13-.74-.29-.14-.55-.29-.81-.46-.25-.17-.47-.37-.67-.6-.19-.23-.35-.5-.46-.82-.11-.31-.17-.69-.17-1.12,0-.54.09-1.01.26-1.4.17-.39.4-.72.68-.97.28-.26.6-.45.96-.57.36-.13.72-.19,1.08-.19.53,0,1.01.09,1.43.26.42.17.77.43,1.06.77l-.98,1.28Z"/>
  <path class="cls-2" d="m251.73,171c0-.53-.04-1.04-.13-1.51-.09-.47-.21-.88-.37-1.22-.16-.34-.37-.61-.61-.81-.24-.2-.52-.3-.84-.3s-.61.1-.85.3c-.24.2-.45.47-.61.81-.16.34-.29.75-.36,1.22-.08.47-.12.97-.12,1.51s.04,1.04.12,1.51c.08.47.2.88.36,1.22.16.35.36.62.61.82.24.2.53.3.85.3s.61-.1.85-.3c.24-.2.45-.47.61-.82.16-.35.28-.76.36-1.22.08-.47.12-.97.12-1.51m1.84,0c0,.83-.09,1.59-.26,2.26-.17.68-.42,1.26-.75,1.74-.33.49-.72.86-1.19,1.13-.47.27-.99.4-1.58.4s-1.12-.13-1.59-.4c-.46-.27-.86-.64-1.18-1.13-.33-.48-.58-1.07-.75-1.74-.17-.68-.26-1.43-.26-2.26s.08-1.58.25-2.26c.17-.67.41-1.25.74-1.74.33-.49.73-.86,1.19-1.12.47-.26,1-.39,1.59-.39s1.11.13,1.58.39c.47.26.87.64,1.19,1.12.33.48.58,1.06.75,1.74.17.68.26,1.43.26,2.26"/>
  <path class="cls-2" d="m260.81,168.85c0-.32-.04-.58-.13-.79-.09-.21-.21-.37-.35-.49-.14-.12-.3-.2-.48-.25-.18-.05-.36-.07-.53-.07h-1.01v3.24h1.01c.44,0,.79-.13,1.08-.41.28-.27.42-.68.42-1.22m.12,7.43l-1.63-4.48h-.99v4.48h-1.72v-10.51h2.99c.43,0,.83.06,1.2.17.37.11.68.3.94.54.26.25.47.56.62.93.15.38.22.82.22,1.35,0,.41-.05.76-.15,1.08-.1.31-.24.58-.39.79-.16.22-.33.39-.53.53-.19.13-.38.23-.57.27l1.88,4.84h-1.87Z"/>
  <polygon class="cls-2" points="268.77 172.25 268.77 176.27 267.02 176.27 267.02 172.25 264.4 165.76 266.32 165.76 267.89 170.45 267.94 170.42 269.54 165.76 271.42 165.76 268.77 172.25"/>
  <path class="cls-1" d="m24.64,144.44c0,5.12.91,10.17,10.71,10.17s11.54-3.44,11.54-9.82c0-4.98-1.68-7.64-7.28-9.12l-10.56-3.02c-6.72-1.68-11.62-5.19-11.62-14.1,0-7.57,4.41-14.03,17.98-14.03,14.9,0,17.49,7.92,17.49,13.54v1.82h-7.56v-3.44c0-5.4-1.33-9.89-9.93-9.89s-10.49,3.79-10.49,9.05c0,5.96,2.52,8,7.83,9.47l9.87,2.66c7.91,2.24,11.89,5.54,11.89,14.03s-3.57,14.87-19.24,14.87-18.68-7.71-18.68-13.47v-1.89h8.05v3.16Z"/>
  <path class="cls-1" d="m148.52,139.53c0,10.38-5.11,17.04-18.75,17.04-15.18,0-18.54-7.65-18.54-16.9v-28.4c0-2.03-.84-2.52-2.87-2.52h-2.38v-3.16h19.52v3.16h-2.87c-1.96,0-2.8.42-2.8,2.59v29.67c0,6.8,2.59,12.62,12.73,12.62s13.23-6.52,13.23-13.67v-28.68c0-2.25-.77-2.52-3.01-2.52h-2.94v-3.16h13.85v3.16h-2.17c-2.24,0-3.01.28-3.01,2.52v28.26Z"/>
  <path class="cls-1" d="m159.46,152.65h2.73c2.31,0,3.22-.49,3.22-2.66v-38.57c0-2.17-.91-2.66-3.22-2.66h-2.73v-3.16h20.22v3.16h-2.8c-2.24,0-3.15.49-3.15,2.66v38.57c0,2.17.91,2.66,3.15,2.66h2.8v3.09h-20.22v-3.09Z"/>
  <path class="cls-1" d="m200.71,107.83v22.44h7.63c6.71,0,9.3-2.31,9.3-10.17v-2.17c0-5.96-1.19-10.1-9.3-10.1h-7.63Zm-14.27-2.24h24.56c13.92,0,15.39,8.35,15.39,12.76v.91c0,5.54-3.08,11.57-12.32,12.91l14.97,20.48v3.09h-7.56l-16.72-23.21h-4.06v17.46c0,2.17.91,2.67,3.15,2.67h2.52v3.09h-19.94v-3.09h2.73c2.31,0,3.22-.49,3.22-2.67v-38.57c0-2.17-.91-2.66-3.22-2.66h-2.73v-3.16Z"/>
  <path class="cls-1" d="m247.17,153.49h14.69c4.13,0,5.11-1.96,5.11-4.49v-6.87h4.48v13.61h-38.55v-3.09h2.73c2.31,0,3.22-.91,3.22-2.95v-37.94c0-2.17-.91-3.02-3.22-3.02h-2.73v-3.15h37.5v13.39h-4.48v-6.94c0-2.46-1.19-4.21-4.9-4.21h-13.85v21.39h8.68c3.08,0,4.12-1.82,4.12-4v-3.16h3.78v16.55h-3.78v-3.09c0-2.24-1.05-4.07-4.12-4.07h-8.68v22.02Z"/>
  <g>
    <path class="cls-1" d="m69.11,125.72v9.54c0,11.85,1.68,19.22,12.66,19.22s12.8-7.36,12.8-19.15v-9.61c0-11.78-1.82-19.15-12.8-19.15s-12.66,7.29-12.66,19.15m25.12,42.01h-7.28l-8.61-11.29c-15.95-1.47-18.61-13.26-18.61-25.18v-1.34c0-12.55,3.01-25.39,22.04-25.39s22.11,12.83,22.11,25.39v1.34c0,11.29-2.59,22.72-16.86,24.97l7.2,9.33v2.17Z"/>
    <path class="cls-1" d="m72.33,37.87c-6.23,0-11.29-5.07-11.29-11.31s5.05-11.31,11.29-11.31,11.29,5.07,11.29,11.31-5.05,11.31-11.29,11.31"/>
    <path class="cls-2" d="m179.54,94.25h-45.15v-45.26c24.94,0,45.15,20.26,45.15,45.26Z"/>
    <path class="cls-3" d="m128.76,26.36v67.89H61.04c0-37.49,30.32-67.89,67.73-67.89"/>
  </g>
</svg>